#!OML:ASF Y:\EmotionMaleHayes\Project 1\Capture day 1\Session 1\Male1.ASF
:FULLY-SPECIFIED
:DEGREES
106
root -28.9412 17.001 1.19809 30.336 83.5717 29.2336
lowerback 0.860703 1.6478 -4.91836
upperback 0.27813 2.16688 -1.08181
thorax -0.336488 1.09192 1.61545
lowerneck -22.4846 2.57342 4.02623
upperneck 20.1374 2.67973 -1.6925
head 10.2223 1.36233 -0.852595
rclavicle -1.07779e-014 9.14409e-015
rhumerus -31.4522 12.3175 -94.0515
rradius 28.2691
rwrist 5.91696
rhand -8.51527 -33.0118
rfingers 7.12502
rthumb 17.413 -62.2518
lclavicle -1.07779e-014 9.14409e-015
lhumerus -28.5001 -8.42304 91.9833
lradius 20.2865
lwrist -17.5038
lhand -13.7734 -26.4105
lfingers 7.12502
lthumb 12.3476 3.20486
rfemur 6.40288 -3.80097 7.63328
rtibia 3.0005
rfoot -13.927 1.64952
rtoes 0.305892
lfemur 12.0658 -3.31464 -17.6153
ltibia -3.5746
lfoot -12.4716 16.0694
ltoes -12.8127
107
root -28.9405 16.999 1.19679 31.3048 83.5324 30.1713
lowerback 0.795098 1.6471 -4.99108
upperback 0.281942 2.17038 -1.12495
thorax -0.296968 1.09311 1.61382
lowerneck -22.3967 2.58127 3.94125
upperneck 20.0721 2.6939 -1.5776
head 10.1803 1.37657 -0.796399
rclavicle -1.01567e-014 1.59028e-015
rhumerus -31.4683 12.2884 -94.0453
rradius 28.2897
rwrist 5.89578
rhand -8.51492 -32.9483
rfingers 7.12502
rthumb 17.4133 -62.1883
lclavicle -1.01567e-014 1.59028e-015
lhumerus -28.5398 -8.4751 92.0089
lradius 20.3568
lwrist -17.4686
lhand -13.8372 -26.4292
lfingers 7.12502
lthumb 12.2861 3.18983
rfemur 6.37146 -3.87648 7.46889
rtibia 3.0137
rfoot -13.957 1.70407
rtoes 0.228898
lfemur 12.0182 -3.38816 -17.7897
ltibia -3.5432
lfoot -12.4666 16.1162
ltoes -12.4473
108
root -28.9401 16.9994 1.19609 31.3126 83.5549 30.1917
lowerback 0.800778 1.65378 -4.94821
upperback 0.29683 2.17977 -1.12564
thorax -0.283855 1.09726 1.5892
lowerneck -22.2881 2.56102 3.7708
upperneck 19.9681 2.67697 -1.37842
head 10.1171 1.37999 -0.701448
rclavicle -1.25607e-014 1.15295e-014
rhumerus -31.4685 12.2027 -94.002
rradius 28.2815
rwrist 5.90132
rhand -8.48246 -32.8916
rfingers 7.12502
rthumb 17.4446 -62.1289
lclavicle -1.25607e-014 1.15295e-014
lhumerus -28.557 -8.50423 92.0374
lradius 20.413
lwrist -17.5177
lhand -13.8372 -26.3995
lfingers 7.12502
lthumb 12.2861 3.21956
rfemur 6.39837 -3.94334 7.476
rtibia 3.01049
rfoot -13.9672 1.66597
rtoes 0.248575
lfemur 12.0216 -3.32752 -17.7623
ltibia -3.52405
lfoot -12.4116 16.0233
ltoes -12.4295
109
root -28.9406 16.999 1.19704 30.9489 83.6063 29.8155
lowerback 0.79774 1.65522 -4.87122
upperback 0.300754 2.18242 -1.1252
thorax -0.275482 1.09825 1.54694
lowerneck -22.266 2.55564 3.77962
upperneck 19.9477 2.66076 -1.35261
head 10.1051 1.37641 -0.696424
rclavicle -2.04313e-014 4.37326e-015
rhumerus -31.4336 12.0386 -93.9766
rradius 28.2094
rwrist 6.07447
rhand -8.48528 -32.7794
rfingers 7.12502
rthumb 17.4419 -62.0169
lclavicle -2.04313e-014 4.37326e-015
lhumerus -28.541 -8.51004 92.0106
lradius 20.3944
lwrist -17.6259
lhand -13.8286 -26.3863
lfingers 7.12502
lthumb 12.2943 3.23229
rfemur 6.41426 -3.87327 7.59177
rtibia 2.95916
rfoot -13.9306 1.5262
rtoes 0.0848399
lfemur 12.0336 -3.4673 -17.7226
ltibia -3.56563
lfoot -12.3982 16.1612
ltoes -12.6808
110
root -28.9415 16.9986 1.19852 30.4373 83.5942 29.3
lowerback 0.787683 1.67222 -4.83943
upperback 0.306211 2.20595 -1.1152
thorax -0.264933 1.10961 1.53955
lowerneck -22.253 2.56786 3.79681
upperneck 19.9421 2.6715 -1.3485
head 10.1012 1.38326 -0.696266
rclavicle -5.26158e-015 2.38542e-014
rhumerus -31.4294 11.9866 -93.9645
rradius 28.1919
rwrist 6.22049
rhand -8.46067 -32.7833
rfingers 7.12502
rthumb 17.4655 -62.0187
lclavicle -5.26158e-015 2.38542e-014
lhumerus -28.5387 -8.4991 91.9998
lradius 20.4097
lwrist -17.5725
lhand -13.6724 -26.3901
lfingers 7.12502
lthumb 12.445 3.21937
rfemur 6.41748 -3.71132 7.68981
rtibia 2.9092
rfoot -13.9112 1.41831
rtoes -0.41601
lfemur 12.0977 -3.72879 -17.7535
ltibia -3.67653
lfoot -12.4266 16.4764
ltoes -13.025
111
root -28.9412 16.9995 1.19865 30.0386 83.5676 28.9198
lowerback 0.806021 1.65815 -4.83056
upperback 0.305861 2.18549 -1.06483
thorax -0.275963 1.09933 1.58597
lowerneck -22.2318 2.59245 3.70285
upperneck 19.9711 2.73751 -1.3411
head 10.108 1.4077 -0.668367
rclavicle -1.22812e-014 -2.5842e-015
rhumerus -31.4723 12.1866 -93.9847
rradius 28.2215
rwrist 6.20217
rhand -8.51235 -32.9165
rfingers 7.12502
rthumb 17.4158 -62.1563
lclavicle -1.22812e-014 -2.5842e-015
lhumerus -28.5782 -8.35462 92.0391
lradius 20.4702
lwrist -17.4973
lhand -13.6203 -26.3989
lfingers 7.12502
lthumb 12.4952 3.20755
rfemur 6.43619 -3.66195 7.72488
rtibia 2.88902
rfoot -13.9281 1.45565
rtoes -0.997189
lfemur 12.1312 -3.66797 -17.7197
ltibia -3.68311
lfoot -12.3957 16.4714
ltoes -13.1467
112
root -28.9403 16.9972 1.19651 30.9784 83.5533 29.8027
lowerback 0.74789 1.70027 -4.85399
upperback 0.301915 2.24608 -1.1579
thorax -0.248359 1.12962 1.50448
lowerneck -22.329 2.53861 3.79399
upperneck 20.0584 2.62762 -1.33441
head 10.1554 1.36525 -0.696502
rclavicle -1.25545e-014 2.46493e-014
rhumerus -31.4207 11.9129 -94.0147
rradius 28.1867
rwrist 6.32125
rhand -8.63203 -32.8937
rfingers 7.12502
rthumb 17.3006 -62.1436
lclavicle -1.25545e-014 2.46493e-014
lhumerus -28.5531 -8.62274 92.0684
lradius 20.4678
lwrist -17.4189
lhand -13.7555 -26.3921
lfingers 7.12502
lthumb 12.3649 3.22227
rfemur 6.38086 -3.78089 7.56938
rtibia 2.90133
rfoot -13.9393 1.57707
rtoes -0.783104
lfemur 12.0308 -3.572 -17.8182
ltibia -3.64227
lfoot -12.2258 16.3844
ltoes -13.403
113
root -28.9406 16.9935 1.1957 32.1002 83.5442 30.852
lowerback 0.670971 1.70379 -4.93903
upperback 0.284984 2.25527 -1.2102
thorax -0.224295 1.13434 1.50027
lowerneck -22.3144 2.50451 3.84098
upperneck 20.0762 2.57046 -1.35349
head 10.1586 1.34071 -0.71974
rclavicle 1.06412e-014 -4.96962e-015
rhumerus -31.4704 11.7272 -94.001
rradius 28.2212
rwrist 6.37156
rhand -8.64549 -32.7592
rfingers 7.12502
rthumb 17.2877 -62.0103
lclavicle 1.06412e-014 -4.96962e-015
lhumerus -28.5608 -8.79766 92.1188
lradius 20.4305
lwrist -17.3879
lhand -13.936 -26.4669
lfingers 7.12502
lthumb 12.1908 3.15788
rfemur 6.29629 -3.88239 7.41391
rtibia 2.93928
rfoot -13.9335 1.64564
rtoes 0.107763
lfemur 11.9131 -3.5761 -17.9384
ltibia -3.61382
lfoot -12.0958 16.3478
ltoes -13.469
114
root -28.9417 16.9939 1.19784 31.7883 83.5644 30.5485
lowerback 0.676868 1.68633 -4.93491
upperback 0.30006 2.23192 -1.18307
thorax -0.211584 1.12202 1.52623
lowerneck -22.3027 2.53043 3.88753
upperneck 20.0747 2.60304 -1.40075
head 10.1582 1.35357 -0.739291
rclavicle -1.3977e-014 -1.55052e-014
rhumerus -31.5686 11.9628 -94.1009
rradius 28.3807
rwrist 6.1172
rhand -8.65506 -32.8963
rfingers 7.12502
rthumb 17.2785 -62.1482
lclavicle -1.3977e-014 -1.55052e-014
lhumerus -28.535 -8.93275 92.1781
lradius 20.3643
lwrist -17.272
lhand -14.1341 -26.5896
lfingers 7.12502
lthumb 11.9998 3.04638
rfemur 6.28096 -3.87023 7.48901
rtibia 2.97851
rfoot -13.9094 1.58511
rtoes 0.0849953
lfemur 11.9247 -3.6263 -17.8815
ltibia -3.58798
lfoot -12.1819 16.3319
ltoes -13.1294
115
root -28.942 16.995 1.19929 30.9812 83.5444 29.7512
lowerback 0.672831 1.68441 -4.89972
upperback 0.318864 2.2299 -1.13762
thorax -0.190381 1.11998 1.55378
lowerneck -22.2971 2.54636 3.83798
upperneck 20.0735 2.63367 -1.36648
head 10.1564 1.368 -0.714391
rclavicle -3.46631e-015 1.37161e-014
rhumerus -31.4498 12.1387 -94.0928
rradius 28.6829
rwrist 4.83828
rhand -7.95698 -33.7451
rfingers 7.12502
rthumb 17.9502 -62.9368
lclavicle -3.46631e-015 1.37161e-014
lhumerus -28.4893 -8.90836 92.2102
lradius 20.3037
lwrist -17.2016
lhand -14.24 -26.6785
lfingers 7.12502
lthumb 11.8977 2.96347
rfemur 6.27706 -3.75972 7.59811
rtibia 2.9702
rfoot -13.8905 1.50268
rtoes -0.0438626
lfemur 11.987 -3.74136 -17.8366
ltibia -3.62596
lfoot -12.33 16.4927
ltoes -13.0321
116
root -28.9417 16.9929 1.19911 31.0244 83.4869 29.7543
lowerback 0.618352 1.68771 -4.95145
upperback 0.31004 2.23687 -1.11312
thorax -0.172281 1.12307 1.60919
lowerneck -22.2312 2.52494 3.7422
upperneck 20.0343 2.62548 -1.31305
head 10.1278 1.36349 -0.681652
rclavicle -1.62506e-014 9.14409e-015
rhumerus -31.438 12.2616 -94.0931
rradius 28.4717
rwrist 5.26984
rhand -8.21231 -33.3716
rfingers 7.12502
rthumb 17.7045 -62.5856
lclavicle -1.62506e-014 9.14409e-015
lhumerus -28.5632 -8.83392 92.2486
lradius 20.4328
lwrist -17.1126
lhand -14.2026 -26.6437
lfingers 7.12502
lthumb 11.9337 2.99613
rfemur 6.20617 -3.69708 7.55358
rtibia 2.99714
rfoot -13.8993 1.52853
rtoes 0.54224
lfemur 11.9705 -3.75831 -17.8871
ltibia -3.67628
lfoot -12.4168 16.6119
ltoes -12.942
117
root -28.9417 16.9935 1.19876 31.0141 83.5157 29.7708
lowerback 0.651692 1.67548 -4.92777
upperback 0.320008 2.21886 -1.10579
thorax -0.178978 1.11403 1.60288
lowerneck -22.2135 2.51834 3.69969
upperneck 20.0215 2.61801 -1.2597
head 10.1183 1.36333 -0.657077
rclavicle -2.18663e-015 5.96354e-016
rhumerus -31.4555 12.219 -94.1033
rradius 28.2644
rwrist 5.872
rhand -8.50781 -33.0349
rfingers 7.12502
rthumb 17.4202 -62.2743
lclavicle -2.18663e-015 5.96354e-016
lhumerus -28.6701 -8.79388 92.2482
lradius 20.6601
lwrist -17.0801
lhand -13.9957 -26.3975
lfingers 7.12502
lthumb 12.1333 3.23063
rfemur 6.2275 -3.69688 7.56515
rtibia 3.02212
rfoot -13.9031 1.54794
rtoes 0.291548
lfemur 11.9125 -3.39612 -17.7445
ltibia -3.54886
lfoot -12.3782 16.2292
ltoes -13.0759
118
root -28.9418 16.9957 1.19871 30.8671 83.5632 29.6702
lowerback 0.682395 1.68103 -4.87895
upperback 0.361445 2.22635 -1.11654
thorax -0.151816 1.11667 1.56441
lowerneck -22.21 2.51556 3.75813
upperneck 19.9566 2.59613 -1.27337
head 10.0949 1.35543 -0.675023
rclavicle 9.16273e-015 1.78906e-015
rhumerus -31.4135 12.179 -94.124
rradius 28.2468
rwrist 5.79626
rhand -8.57727 -33.0255
rfingers 7.12502
rthumb 17.3533 -62.2708
lclavicle 9.16273e-015 1.78906e-015
lhumerus -28.6777 -8.84605 92.2379
lradius 20.7728
lwrist -17.0353
lhand -13.5103 -26.132
lfingers 7.12502
lthumb 12.6012 3.46793
rfemur 6.30678 -3.73544 7.60723
rtibia 2.98693
rfoot -13.8512 1.52555
rtoes -0.78756
lfemur 11.8734 -3.05631 -17.5802
ltibia -3.39262
lfoot -12.3327 15.8213
ltoes -13.1996
119
root -28.9418 16.9961 1.1984 30.8331 83.5777 29.6536
lowerback 0.6725 1.70041 -4.89334
upperback 0.398599 2.25423 -1.11276
thorax -0.110525 1.12919 1.57699
lowerneck -22.1866 2.49834 3.86909
upperneck 19.8552 2.55611 -1.36618
head 10.0562 1.33326 -0.732592
rclavicle -1.74247e-014 -6.95746e-015
rhumerus -31.3916 12.1352 -94.1002
rradius 28.2741
rwrist 5.72498
rhand -8.58244 -32.8174
rfingers 7.12502
rthumb 17.3483 -62.0632
lclavicle -1.74247e-014 -6.95746e-015
lhumerus -28.6659 -8.93908 92.2707
lradius 20.8065
lwrist -16.9492
lhand -13.4454 -26.061
lfingers 7.12502
lthumb 12.6639 3.53503
rfemur 6.33985 -3.80819 7.60308
rtibia 2.97409
rfoot -13.8231 1.55689
rtoes -0.726428
lfemur 11.9479 -3.31511 -17.6618
ltibia -3.481
lfoot -12.3748 16.0698
ltoes -12.8735
120
root -28.9421 16.996 1.19837 30.7265 83.5904 29.5542
lowerback 0.702229 1.70758 -4.88105
upperback 0.389073 2.26154 -1.11064
thorax -0.137072 1.13353 1.57104
lowerneck -22.1656 2.49144 3.89848
upperneck 19.8656 2.54208 -1.38206
head 10.0564 1.32748 -0.745281
rclavicle 1.19457e-014 -6.75868e-015
rhumerus -31.4091 11.9565 -94.0574
rradius 28.2244
rwrist 5.94541
rhand -8.48307 -32.4631
rfingers 7.12502
rthumb 17.444 -61.7004
lclavicle 1.19457e-014 -6.75868e-015
lhumerus -28.7339 -8.89306 92.2592
lradius 20.8325
lwrist -17.0845
lhand -14.7035 -26.2375
lfingers 7.12502
lthumb 11.4508 3.42981
rfemur 6.35391 -3.77616 7.62965
rtibia 2.95961
rfoot -13.8688 1.56942
rtoes 0.132337
lfemur 12.0141 -3.59545 -17.7366
ltibia -3.60793
lfoot -12.3876 16.3555
ltoes -12.6502
